#!OML:ASF I:\Actors\actors\Patient Classification 1\Patient 1\Session 1\Subject1.ASF
:FULLY-SPECIFIED
:DEGREES
971
root -0.0519634 17.5097 8.49628 10.1317 0.433907 -8.27134
lowerback 0.634522 1.22725 7.03544
upperback -8.84231 2.12505 0.629682
thorax -9.54108 0.515823 -3.44095
lowerneck -15.4642 -7.40352 -4.49731
upperneck 11.875 -10.8241 10.941
head 7.04448 -4.51913 3.07038
rclavicle -7.65321e-015 1.94809e-014
rhumerus -74.3695 -6.03868 -86.3778
rradius 125.138
rwrist -8.09291
rhand -12.5958 -31.1391
rfingers 7.12502
rthumb 13.4828 299.317
lclavicle -7.65321e-015 1.94809e-014
lhumerus -73.1844 7.12063 81.891
lradius 100.991
lwrist 12.3534
lhand -41.5718 -45.126
lfingers 7.12502
lthumb -14.4826 -15.6514
rfemur -6.94669 22.4667 23.0986
rtibia 6.23107
rfoot -13.6022 -22.2711
rtoes 2.49415
lfemur 1.82387 -35.7324 -9.82054
ltibia -1.74905
lfoot -15.5625 43.9261
ltoes 0.0489576
972
root -0.042685 17.5048 8.47938 10.0707 0.118798 -8.38608
lowerback 0.864285 1.2689 7.15317
upperback -8.8946 2.21793 0.713116
thorax -9.72875 0.547152 -3.4324
lowerneck -15.2211 -7.2479 -4.2288
upperneck 11.7954 -10.5566 10.3115
head 6.90093 -4.44331 2.86648
rclavicle -3.77691e-015 3.45885e-014
rhumerus -74.9374 -4.99878 -86.8594
rradius 121.33
rwrist -8.01704
rhand -13.8528 -29.8372
rfingers 7.12502
rthumb 12.271 300.543
lclavicle -3.77691e-015 3.45885e-014
lhumerus -72.9257 6.43929 82.2097
lradius 97.2682
lwrist 13.8299
lhand -41.9984 -42.9829
lfingers 7.12502
lthumb -14.8936 -13.5383
rfemur -7.20973 22.3601 23.1369
rtibia 6.64378
rfoot -13.5278 -21.9181
rtoes 1.92516
lfemur 1.82409 -35.3341 -9.75676
ltibia -1.65407
lfoot -15.47 43.8652
ltoes -0.0699988
973
root -0.0350809 17.505 8.47078 9.84212 0.107952 -8.39716
lowerback 1.07003 1.17285 7.17512
upperback -8.825 2.11063 0.788648
thorax -9.78814 0.495333 -3.35991
lowerneck -15.0783 -7.05831 -3.97424
upperneck 11.737 -10.2609 9.79788
head 6.79055 -4.33965 2.70231
rclavicle 1.04859e-014 1.98785e-015
rhumerus -75.153 -3.94295 -87.3646
rradius 117.562
rwrist -8.85861
rhand -14.3999 -29.6445
rfingers 7.12502
rthumb 11.7435 300.705
lclavicle 1.04859e-014 1.98785e-015
lhumerus -72.3848 6.07487 82.2859
lradius 93.3524
lwrist 15.1855
lhand -41.8336 -41.7339
lfingers 7.12502
lthumb -14.7349 -12.2776
rfemur -7.01525 22.5373 23.2235
rtibia 6.74084
rfoot -13.6006 -22.1009
rtoes 2.02161
lfemur 1.94855 -34.9748 -9.81917
ltibia -1.55921
lfoot -15.2119 43.5118
ltoes -0.517313
974
root -0.0251337 17.5033 8.46527 9.67487 0.0324286 -8.4043
lowerback 1.15342 1.10298 7.2167
upperback -8.73951 2.02556 0.83785
thorax -9.75247 0.455645 -3.32438
lowerneck -15.0218 -6.84659 -3.74339
upperneck 11.7438 -9.94784 9.35684
head 6.72295 -4.21726 2.56381
rclavicle -1.59028e-015 -1.31198e-014
rhumerus -75.0973 -3.0305 -87.8337
rradius 113.815
rwrist -10.0406
rhand -14.2807 -29.5737
rfingers 7.12502
rthumb 11.8584 300.782
lclavicle -1.59028e-015 -1.31198e-014
lhumerus -71.6171 5.92206 82.131
lradius 89.2589
lwrist 16.1546
lhand -41.0998 -41.156
lfingers 7.12502
lthumb -14.0278 -11.6494
rfemur -6.85358 22.6224 23.2717
rtibia 6.77893
rfoot -13.6188 -22.1416
rtoes 2.084
lfemur 2.10901 -34.6972 -9.9187
ltibia -1.53169
lfoot -15.2364 43.2562
ltoes -0.479604
975
root -0.0144937 17.4997 8.46124 9.55912 -0.0927821 -8.41618
lowerback 1.17789 1.05732 7.28027
upperback -8.66798 1.96943 0.882367
thorax -9.69368 0.428774 -3.30711
lowerneck -14.966 -6.63478 -3.56959
upperneck 11.6858 -9.62356 8.95533
head 6.64137 -4.09037 2.44818
rclavicle 4.96962e-016 -1.63003e-014
rhumerus -74.84 -2.22128 -88.2271
rradius 109.899
rwrist -10.4599
rhand -14.2549 -29.2049
rfingers 7.12502
rthumb 11.8833 301.152
lclavicle 4.96962e-016 -1.63003e-014
lhumerus -70.7543 5.96957 81.8813
lradius 85.193
lwrist 16.7141
lhand -40.5914 -40.3226
lfingers 7.12502
lthumb -13.5379 -10.7827
rfemur -6.73178 22.6366 23.2998
rtibia 6.78399
rfoot -13.5277 -22.1038
rtoes 1.71366
lfemur 2.29862 -34.5644 -10.055
ltibia -1.54971
lfoot -15.2646 43.1982
ltoes -0.504263
976
root 0.000674179 17.5012 8.46257 9.22621 0.20972 -8.36499
lowerback 1.33776 0.901137 7.48875
upperback -8.54311 1.78017 0.876251
thorax -9.6691 0.32284 -3.41591
lowerneck -14.8261 -6.50223 -3.50423
upperneck 11.4976 -9.38994 8.64333
head 6.52156 -4.01038 2.37059
rclavicle 1.02374e-014 -3.73715e-014
rhumerus -74.4423 -1.64586 -88.4577
rradius 105.82
rwrist -9.31944
rhand -14.4 -28.8042
rfingers 7.12502
rthumb 11.7434 301.545
lclavicle 1.02374e-014 -3.73715e-014
lhumerus -69.8248 6.18201 81.5988
lradius 81.1866
lwrist 17.2689
lhand -40.2462 -39.5387
lfingers 7.12502
lthumb -13.2051 -9.97693
rfemur -6.13146 22.6639 23.4123
rtibia 6.50277
rfoot -13.5237 -22.4837
rtoes 1.67448
lfemur 2.56073 -34.5373 -10.2989
ltibia -1.47874
lfoot -14.8802 42.8715
ltoes -1.23064
977
root 0.0109829 17.5026 8.46755 8.97171 0.207354 -8.28795
lowerback 1.41768 0.877672 7.54113
upperback -8.44665 1.75196 0.849589
thorax -9.61049 0.308009 -3.47234
lowerneck -14.5619 -6.41607 -3.57678
upperneck 11.2543 -9.22841 8.57094
head 6.38815 -3.95629 2.38618
rclavicle 6.90777e-015 4.77083e-015
rhumerus -73.8843 -1.38276 -88.4402
rradius 101.631
rwrist -6.94909
rhand -14.1341 -28.1865
rfingers 7.12502
rthumb 11.9998 302.177
lclavicle 6.90777e-015 4.77083e-015
lhumerus -68.8674 6.4377 81.2903
lradius 77.3276
lwrist 18.015
lhand -39.9534 -38.849
lfingers 7.12502
lthumb -12.9229 -9.26918
rfemur -5.64281 22.8493 23.4615
rtibia 6.27771
rfoot -13.5134 -22.6988
rtoes 1.76775
lfemur 3.00659 -34.5474 -10.6672
ltibia -1.5898
lfoot -14.7794 42.8447
ltoes -1.33446
978
root 0.0249301 17.4994 8.47469 8.85461 0.125802 -8.1257
lowerback 1.28724 0.869647 7.51175
upperback -8.3777 1.71689 0.778483
thorax -9.45701 0.297299 -3.52543
lowerneck -14.2611 -6.29222 -3.52107
upperneck 11.04 -9.04535 8.49226
head 6.25093 -3.88651 2.38217
rclavicle 1.17283e-014 1.82882e-014
rhumerus -73.1103 -1.16584 -88.4078
rradius 97.2379
rwrist -4.98005
rhand -13.4128 -27.6053
rfingers 7.12502
rthumb 12.6952 302.801
lclavicle 1.17283e-014 1.82882e-014
lhumerus -67.9314 6.7454 80.8996
lradius 73.6911
lwrist 18.6053
lhand -39.5672 -38.2592
lfingers 7.12502
lthumb -12.5505 -8.65619
rfemur -5.33226 23.0255 23.3197
rtibia 6.06609
rfoot -13.5125 -22.845
rtoes 2.02061
lfemur 3.30178 -34.4986 -11.079
ltibia -1.68403
lfoot -14.77 42.8379
ltoes -1.28839
979
root 0.0421911 17.4907 8.47484 8.92722 -0.177938 -8.03457
lowerback 1.05652 0.950411 7.54979
upperback -8.37226 1.79911 0.701964
thorax -9.30084 0.33729 -3.62985
lowerneck -14.0178 -6.18449 -3.24594
upperneck 10.9852 -8.90352 8.16852
head 6.1548 -3.83999 2.25847
rclavicle 1.44616e-014 1.43125e-014
rhumerus -72.1383 -0.949764 -88.3768
rradius 92.6733
rwrist -3.87588
rhand -12.6069 -27.3659
rfingers 7.12502
rthumb 13.4721 303.09
lclavicle 1.44616e-014 1.43125e-014
lhumerus -67.0144 7.00988 80.6902
lradius 70.5013
lwrist 17.79
lhand -40.6775 -34.9103
lfingers 7.12502
lthumb -13.6208 -5.37596
rfemur -5.45174 23.1068 23.0797
rtibia 6.05627
rfoot -13.4432 -22.6809
rtoes 2.01072
lfemur 3.33618 -34.3375 -11.308
ltibia -1.69494
lfoot -14.94 42.9355
ltoes -0.997638
980
root 0.0567226 17.477 8.46149 9.29554 -0.988761 -8.08377
lowerback 0.79689 1.24029 7.58951
upperback -8.48789 2.16795 0.64689
thorax -9.22852 0.512689 -3.73462
lowerneck -13.9018 -6.14177 -3.01543
upperneck 11.1819 -8.86154 7.85498
head 6.16894 -3.83222 2.12899
rclavicle 1.09332e-015 -5.52621e-014
rhumerus -71.0206 -0.85532 -88.295
rradius 88.021
rwrist -3.31438
rhand -12.351 -27.3897
rfingers 7.12502
rthumb 13.7187 303.083
lclavicle 1.09332e-015 -5.52621e-014
lhumerus -66.0339 7.3104 80.2875
lradius 67.0834
lwrist 16.9194
lhand -40.5644 -33.5688
lfingers 7.12502
lthumb -13.5118 -4.0271
rfemur -6.2969 23.0262 22.7383
rtibia 6.46039
rfoot -13.2397 -21.8409
rtoes 1.49636
lfemur 3.15105 -34.0915 -11.2797
ltibia -1.7631
lfoot -15.4941 43.3897
ltoes 0.063751
981
root 0.0645444 17.48 8.45714 9.05182 -1.09704 -7.98519
lowerback 0.959545 1.23934 7.47361
upperback -8.43067 2.1689 0.607027
thorax -9.26077 0.520028 -3.71706
lowerneck -13.829 -6.12303 -2.92026
upperneck 11.4471 -8.84247 7.62576
head 6.22379 -3.83182 2.04328
rclavicle 1.92821e-014 3.97569e-015
rhumerus -69.7517 -0.818297 -88.1861
rradius 83.2635
rwrist -3.23051
rhand -12.3019 -27.6349
rfingers 7.12502
rthumb 13.766 302.84
lclavicle 1.92821e-014 3.97569e-015
lhumerus -65.0363 7.68388 79.7832
lradius 63.5281
lwrist 15.8777
lhand -40.0894 -33.526
lfingers 7.12502
lthumb -13.054 -3.95453
rfemur -6.00951 23.1315 22.715
rtibia 6.45034
rfoot -13.2272 -21.8953
rtoes 1.37062
lfemur 3.47421 -33.8501 -11.5744
ltibia -1.8143
lfoot -15.4436 43.1594
ltoes 0.21431
